# xmcd
#
# Track frame offsets:
#	150
#	17009
#	37460
#	63713
#	84618
#	94901
#	106856
#	127805
#	150290
#	174563
#
# Disc length: 2519 seconds
#
# Revision: 1
# Processed by: cddbd v1.5.1PL0 Copyright (c) Steve Scherf et al.
# Submitted via: audiograbber 1.83.01
#
DISCID=7b09d50a
DTITLE=The Mieli Sairaala - Highway 25
DYEAR=1900
DGENRE=
TTITLE0=Le Klown
TTITLE1=In The Night
TTITLE2=Highway 25
TTITLE3=This Road Ain't Highway
TTITLE4=Arkangel's Dark Angels
TTITLE5=Sixpack Limit
TTITLE6=I Wanna Die In Sommertime
TTITLE7=Burning Sauna Blues
TTITLE8=Till The End Of Time, My Love
TTITLE9=Where Souls Stood And Stared
EXTD=
EXTT0=
EXTT1=
EXTT2=
EXTT3=
EXTT4=
EXTT5=
EXTT6=
EXTT7=
EXTT8=
EXTT9=
PLAYORDER=
